<svg version="1.1" xmlns="http://www.w3.org/2000/svg" xmlns:xlink="http://www.w3.org/1999/xlink" width="649.4985" height="726.8446" viewBox="0,0,649.4985,726.8446"><defs><linearGradient x1="240" y1="-82.625" x2="240" y2="442.625" gradientUnits="userSpaceOnUse" id="color-1"><stop offset="0" stop-color="#1d1e47"/><stop offset="1" stop-color="#ff8800"/></linearGradient><radialGradient cx="240" cy="234.99999" r="267.26726" gradientUnits="userSpaceOnUse" id="color-2"><stop offset="0" stop-color="#edd06f"/><stop offset="1" stop-color="#edd06f" stop-opacity="0"/></radialGradient><radialGradient cx="240" cy="235" r="215.46547" gradientUnits="userSpaceOnUse" id="color-3"><stop offset="0" stop-color="#ffedb3"/><stop offset="1" stop-color="#ffedb3" stop-opacity="0"/></radialGradient><radialGradient cx="240" cy="235" r="141.90567" gradientUnits="userSpaceOnUse" id="color-4"><stop offset="0" stop-color="#fffefd"/><stop offset="1" stop-color="#fffefd" stop-opacity="0"/></radialGradient><linearGradient x1="241.4985" y1="236.08671" x2="241.4985" y2="644.2196" gradientUnits="userSpaceOnUse" id="color-5"><stop offset="0" stop-color="#484848"/><stop offset="1" stop-color="#0461ff"/></linearGradient><linearGradient x1="234.5" y1="272.25" x2="234.5" y2="368.25" gradientUnits="userSpaceOnUse" id="color-6"><stop offset="0" stop-color="#878787"/><stop offset="1" stop-color="#3c3c3c"/></linearGradient><linearGradient x1="240.12462" y1="235.85938" x2="240.12462" y2="283.10938" gradientUnits="userSpaceOnUse" id="color-7"><stop offset="0" stop-color="#f5e4ba"/><stop offset="1" stop-color="#424a56"/></linearGradient></defs><g transform="translate(84,82.625)"><g data-paper-data="{&quot;isPaintingLayer&quot;:true}" fill-rule="nonzero" stroke="none" stroke-width="0" stroke-linecap="butt" stroke-linejoin="miter" stroke-miterlimit="10" stroke-dasharray="" stroke-dashoffset="0" style="mix-blend-mode: normal"><path d="M-84,442.625v-525.25h648v525.25z" fill="url(#color-1)"/><path d="M507.26726,234.99999c0,135.58342 -119.65963,245.4955 -267.26726,245.4955c-147.60763,0 -267.26727,-109.91208 -267.26727,-245.49549c0,-135.58342 119.65964,-245.49549 267.26727,-245.49549c147.60763,0 267.26726,109.91208 267.26726,245.4955z" fill="url(#color-2)"/><path d="M455.46546,235c0,109.30461 -96.46718,197.91351 -215.46547,197.91351c-118.99829,0 -215.46546,-88.6089 -215.46546,-197.91351c0,-109.30461 96.46718,-197.9135 215.46547,-197.9135c118.99829,0 215.46547,88.60889 215.46547,197.91351z" fill="url(#color-3)"/><path d="M381.90566,235c0,71.98807 -63.53333,130.34594 -141.90566,130.34594c-78.37234,0 -141.90567,-58.35787 -141.90567,-130.34594c0,-71.98807 63.53333,-130.34593 141.90567,-130.34593c78.37234,0 141.90567,58.35786 141.90567,130.34594z" fill="url(#color-4)"/><path d="M204.71471,235.00001c0,-19.48753 15.79776,-35.28529 35.28529,-35.28529c19.48752,0 35.28529,15.79776 35.28529,35.28529c0,19.48753 -15.79776,35.28528 -35.28529,35.28528c-19.48753,0 -35.28529,-15.79776 -35.28529,-35.28528z" fill="#ffffff"/><path d="M-82.5015,644.2196v-408.13289h648v408.13289z" fill="url(#color-5)"/><path d="M-81.5,368.25v-96h632v96z" fill="url(#color-6)"/><path d="M53.37462,272.10938l151.75,-36.25h70l133.75,36.75z" fill="url(#color-7)"/></g></g></svg>